<svg width="38" height="38" viewBox="0 0 38 38" fill="none" xmlns="http://www.w3.org/2000/svg">
<path fill-rule="evenodd" clip-rule="evenodd" d="M1.99895 1.00103H36.9981V36.0003H1.99895V1.00103Z" fill="#D97AA5"/>
<path fill-rule="evenodd" clip-rule="evenodd" d="M19.5068 26.5064C15.3633 26.5064 12.0043 23.1473 12.0043 19.004C12.0043 14.8606 15.3633 11.5015 19.5068 11.5015C23.6502 11.5015 27.0092 14.8606 27.0092 19.004C27.0092 23.1473 23.6502 26.5064 19.5068 26.5064ZM21.2997 17.7445C21.4877 18.1248 21.6673 18.5033 21.8325 18.8748C22.8517 18.7066 23.9541 18.7016 25.1259 18.9329C25.1135 17.8396 24.7854 16.8243 24.2348 15.9651C23.3345 16.7141 22.3293 17.2946 21.2997 17.7445ZM23.3869 23.063C24.1358 22.3465 24.6822 21.4245 24.9474 20.3896C24.3403 20.2822 23.4665 20.2018 22.4368 20.3215C22.8587 21.401 23.1752 22.3613 23.3869 23.063ZM19.4989 24.6273C20.3844 24.6273 21.2189 24.4171 21.9642 24.0528C21.7718 22.8755 21.422 21.7154 20.993 20.6129C19.5241 21.0372 17.8832 21.9227 16.3061 23.632C17.2136 24.2586 18.3127 24.6273 19.4989 24.6273ZM15.2002 22.6289C16.2 21.5827 18.0078 20.0071 20.4008 19.2253C20.2476 18.8968 20.089 18.5786 19.9282 18.2672C17.4988 19.069 15.1365 19.2425 13.8811 19.2713C13.943 20.5483 14.4262 21.7136 15.2002 22.6289ZM13.9953 17.8149C16.1636 17.6516 17.8671 17.331 19.1973 16.9399C18.4312 15.6281 17.678 14.5567 17.1668 13.877C15.5692 14.606 14.372 16.0577 13.9953 17.8149ZM19.4989 13.3668C19.1772 13.3668 18.8637 13.4001 18.5568 13.4519C19.337 14.3657 20.0186 15.3961 20.6132 16.4477C21.9765 15.8892 22.7848 15.2774 23.2496 14.808C22.2539 13.9148 20.9423 13.3668 19.4989 13.3668Z" fill="white"/>
</svg>
