<svg width="38" height="38" viewBox="0 0 38 38" fill="none" xmlns="http://www.w3.org/2000/svg">
<path fill-rule="evenodd" clip-rule="evenodd" d="M1.00191 1.00103H36.0011V36.0003H1.00191V1.00103Z" fill="#F8BC2E"/>
<path fill-rule="evenodd" clip-rule="evenodd" d="M11.5017 14.3587V11.463C19.8076 11.463 26.5391 18.1984 26.5391 26.5004H23.6413C23.6413 19.8063 18.1979 14.3587 11.5017 14.3587ZM11.5017 19.6233V16.7276C16.9014 16.7276 21.2741 21.1051 21.2741 26.5004H18.3765C18.3765 22.7082 15.2916 19.6233 11.5017 19.6233ZM11.5017 24.728C11.5017 23.7492 12.2951 22.9556 13.2741 22.9556C14.2528 22.9556 15.0465 23.7492 15.0465 24.728C15.0465 25.7068 14.2528 26.5004 13.2741 26.5004C12.2951 26.5004 11.5017 25.7068 11.5017 24.728Z" fill="white"/>
</svg>
