<svg width="38" height="37" viewBox="0 0 38 37" fill="none" xmlns="http://www.w3.org/2000/svg">
<path fill-rule="evenodd" clip-rule="evenodd" d="M1.99891 1.00004H36.9981V35.9993H1.99891V1.00004Z" fill="#00C6FF"/>
<path fill-rule="evenodd" clip-rule="evenodd" d="M18.4362 11.2665C17.7212 10.8574 16.8931 10.6236 16.0105 10.6236C13.3085 10.6236 11.1181 12.8141 11.1181 15.516C11.1181 16.6505 11.5043 17.6949 12.1525 18.5248C12.1525 18.5248 12.1075 18.652 12.1075 18.7594C12.1075 22.9691 15.5203 26.3817 19.7301 26.3817C20.1014 26.3817 20.9519 26.2856 20.9519 26.2856L21.024 26.3254C21.024 26.3254 21.889 26.9865 23.4497 26.968C26.1517 26.968 28.3421 24.7778 28.3421 22.0756C28.3421 20.9411 28.0474 19.8969 27.3993 19.0668L27.3501 18.9599C27.3518 18.8931 27.3526 18.8262 27.3526 18.7594C27.3526 14.5494 23.9399 11.1368 19.7301 11.1368C19.3054 11.1368 18.8886 11.1713 18.4827 11.2382L18.4362 11.2665ZM19.9374 13.5063C18.9754 13.5063 18.0021 13.7864 17.0909 14.3467C16.1797 14.9069 15.6509 15.7596 15.6509 16.6848C15.6509 17.7077 16.1617 18.4284 16.9632 18.8468C17.7649 19.2653 18.6467 19.5212 19.6086 19.614C20.6776 19.7072 21.3626 20.0794 21.6272 20.4747C21.8916 20.8698 21.8916 21.265 21.6272 21.6603C21.3626 22.0556 20.7324 22.3447 19.6637 22.3447C18.3811 22.2516 17.4175 21.7061 16.8831 21.1484C16.8831 21.1484 16.3218 20.5476 15.6242 21.1606C14.7919 21.8456 15.4447 22.4699 15.4447 22.4699C15.979 22.9351 16.4555 23.3801 17.2037 23.6593C17.9519 23.9382 18.8845 24.0776 20.0015 24.0776C21.1771 24.0776 22.2073 23.7754 23.0918 23.1709C23.9764 22.5666 24.4186 21.8458 24.4186 21.0089C24.4186 19.9395 24.0044 19.1607 23.176 18.6725C22.3476 18.1844 21.4257 17.8937 20.4104 17.8006C19.4484 17.6612 18.6505 17.397 18.3833 17.1179C18.116 16.839 18.0611 16.2272 18.3283 15.8319C18.5955 15.4369 19.3018 15.1292 20.447 15.2574C21.3173 15.4406 21.8823 15.8662 22.5267 16.3326C22.5267 16.3326 23.2301 16.6042 23.6664 16.0627C24.1844 15.3503 23.6536 14.8093 23.6536 14.8093C23.6536 14.8093 23.1492 14.1975 22.5348 13.9649C21.92 13.7323 21.0543 13.5063 19.9374 13.5063Z" fill="white"/>
</svg>
