<svg width="38" height="38" viewBox="0 0 38 38" fill="none" xmlns="http://www.w3.org/2000/svg">
<path fill-rule="evenodd" clip-rule="evenodd" d="M1.99994 1.00103H36.9991V36.0003H1.99994V1.00103Z" fill="#45B0E3"/>
<path fill-rule="evenodd" clip-rule="evenodd" d="M8.98475 21.7096C8.98475 21.7096 13.0058 25.2061 16.2034 21.7402C16.2034 21.7402 15.6686 21.7392 15.3256 21.4756C15.0126 21.2347 14.8888 20.7293 14.8888 20.7293C14.8888 20.7293 15.8834 20.1731 15.5102 19.753C15.5102 19.753 13.31 19.7092 13.1869 18.3809L14.4793 17.5465C14.4793 17.5465 13.9716 17.7926 13.469 17.5427C13.469 17.5427 12.1648 16.607 12.4136 15.6492L13.5033 15.5378C13.5033 15.5378 11.6128 14.1944 12.1407 13.162C12.1407 13.162 12.3227 12.2738 18.5766 16.4262C18.5766 16.4262 19.6791 12.5024 21.7156 11.6395C21.7156 11.6395 22.0541 11.8019 22.0541 11.9747C22.0541 11.9747 22.3431 11.3536 22.7237 11.296C22.7237 11.296 23.1842 11.7013 22.8849 11.9321C22.8849 11.9321 23.6596 11.4022 24.0379 11.671C24.0379 11.671 24.007 12.1427 22.8932 12.7292C22.8932 12.7292 25.7837 12.8894 26.7926 16.7439C26.7926 16.7439 28.0464 17.1943 29.2228 16.4377C29.2228 16.4377 29.3207 17.0073 27.4935 17.8126C27.4935 17.8126 27.6635 18.087 29.195 17.8782C29.195 17.8782 29.1832 19.0177 26.76 19.0087C26.76 19.0087 24.7139 24.937 19.7407 25.7531C13.6966 26.745 9.4511 23.7231 8.98475 21.7096Z" fill="white"/>
</svg>
