<svg width="38" height="37" viewBox="0 0 38 37" fill="none" xmlns="http://www.w3.org/2000/svg">
<path fill-rule="evenodd" clip-rule="evenodd" d="M1.99994 1.00004H36.9991V35.9993H1.99994V1.00004Z" fill="#E70031"/>
<path fill-rule="evenodd" clip-rule="evenodd" d="M14.7804 11.0432C14.5365 12.4408 14.3628 13.4587 14.259 14.2533C14.2247 13.7503 14.0732 12.4972 13.8043 11.0432H12.0847L13.4008 15.8349V18.5311H15.173V15.8349L16.5003 11.0039L14.7804 11.0432ZM14.0352 19.8331H24.9635C26.6401 19.8331 27.9992 21.2395 27.9992 22.9738V24.8584C27.9992 26.593 26.6401 27.9992 24.9635 27.9992H14.0352C12.3587 27.9992 10.9996 26.593 10.9996 24.8584V22.9738C10.9996 21.2395 12.3587 19.8331 14.0352 19.8331ZM20.2704 12.987C20.4277 13.1866 20.5351 13.3921 20.5929 13.6036C20.6507 13.8154 20.6795 14.1374 20.6795 14.57V16.0652C20.6795 16.6142 20.6529 17.0168 20.5995 17.2729C20.5461 17.529 20.4321 17.7683 20.2572 17.9906C20.0823 18.2129 19.8577 18.3771 19.5834 18.4828C19.3092 18.5886 19.1461 18.6415 18.7902 18.6415C18.393 18.6415 17.8289 18.5962 17.5532 18.5058C17.2775 18.4154 17.0634 18.279 16.9106 18.0962C16.7579 17.914 16.6489 17.6932 16.5838 17.4338C16.5186 17.1747 16.486 16.786 16.486 16.2675V14.7031C16.486 14.1359 16.5453 13.6928 16.6639 13.3736C16.7824 13.0546 16.9959 12.7985 17.3042 12.6053C17.6125 12.412 18.2344 12.3154 18.7148 12.3154C19.1178 12.3154 19.3123 12.3775 19.6012 12.5019C19.8903 12.6261 20.1133 12.7878 20.2704 12.987ZM18.832 17.2053C18.866 17.1254 18.8831 16.9537 18.8831 16.6898V14.1882C18.8831 13.8755 18.8668 13.6782 18.8342 13.5971C18.8015 13.5158 18.656 13.4752 18.5493 13.4752C18.4425 13.4752 18.3715 13.5158 18.3359 13.5971C18.3003 13.6782 18.2825 13.8755 18.2825 14.1882V16.63C18.2825 16.9184 18.3003 17.1064 18.3359 17.1938C18.3715 17.2811 18.4411 17.3247 18.5448 17.3247C18.6516 17.3247 18.7979 17.2849 18.832 17.2053ZM23.7395 16.5344V12.3081H25.536V18.5311H23.7084L23.7395 18.0239C23.6151 18.2299 23.4616 18.3841 23.2793 18.4873C23.1293 18.5719 22.9606 18.5684 22.7734 18.5646C22.7331 18.5637 22.6921 18.5629 22.6501 18.5629C22.5995 18.5629 22.5478 18.5639 22.496 18.5649C22.2721 18.5695 22.0472 18.574 21.9027 18.4943C21.7249 18.3961 21.5936 18.2657 21.5092 18.1033C21.4247 17.9408 21.372 17.7713 21.3513 17.5951C21.3305 17.4186 21.3202 17.0681 21.3202 16.5436V12.3081H23.1167V16.5804C23.1167 17.0558 23.1308 17.338 23.1589 17.4268C23.1871 17.5159 23.3393 17.5605 23.4639 17.5605C23.5972 17.5605 23.6766 17.5144 23.7017 17.4223C23.7269 17.3304 23.7395 17.0343 23.7395 16.5344ZM12.8222 21.0925V22.3034H13.4445V26.7119H14.6655V22.3034H15.2151V21.0925H12.8222ZM17.6433 22.3525V25.2477C17.6433 25.6144 17.634 25.8315 17.6156 25.8991C17.5972 25.9664 17.4631 26.0002 17.3653 26.0002C17.274 26.0002 17.1041 25.9677 17.0835 25.9023C17.0628 25.837 17.0525 25.6302 17.0525 25.2815V22.3135H15.849V25.2544C15.849 25.639 15.8565 25.8961 15.8718 26.0255C15.887 26.1549 15.9256 26.2791 15.9876 26.3982C16.0496 26.5177 16.1457 26.613 16.2761 26.6851C16.4065 26.757 16.5706 26.793 16.7685 26.793C16.9424 26.793 17.0963 26.7552 17.2299 26.6796C17.3636 26.6043 17.4762 26.4911 17.5674 26.3399L17.5446 26.7119H18.8848V22.3525H17.6433ZM19.5095 21.0925V26.7119H20.6283L20.713 26.3737C20.8239 26.5137 21.098 26.6183 21.2317 26.6881C21.3654 26.758 21.5093 26.793 21.6638 26.793C21.879 26.793 22.0649 26.7339 22.2214 26.6158C22.3779 26.4976 22.4774 26.3584 22.5199 26.1975C22.5622 26.0368 22.5834 25.7922 22.5834 25.4637V23.289C22.5834 22.9583 22.5763 23.0565 22.5622 22.9553C22.548 22.8542 22.5062 22.7505 22.4367 22.6449C22.3671 22.5393 22.266 22.4571 22.1334 22.3986C22.0008 22.3402 21.8442 22.311 21.6638 22.311C21.5073 22.311 21.3622 22.343 21.2285 22.4073C21.0948 22.4714 20.8217 22.5691 20.713 22.6997V21.0925H19.5095ZM21.266 25.3929C21.266 25.6582 21.2535 25.826 21.2285 25.8956C21.2035 25.9651 20.9979 26.0002 20.9152 26.0002C20.8348 26.0002 20.781 25.9664 20.7538 25.8991C20.7267 25.8315 20.713 25.6775 20.713 25.4367V23.3499C20.713 23.1 20.7249 23.2585 20.749 23.1967C20.7729 23.1346 20.825 23.1038 20.9056 23.1038C20.9881 23.1038 21.1954 23.1393 21.2236 23.2099C21.2518 23.281 21.266 23.118 21.266 23.3499V25.3929ZM26.0768 23.9589C26.0768 23.5248 26.0283 23.3451 25.9316 23.1055C25.8348 22.8659 25.6664 22.6734 25.4262 22.5285C25.1859 22.3836 24.8811 22.311 24.5115 22.311C24.2093 22.311 24.0178 22.371 23.7852 22.4915C23.5526 22.6119 23.3472 22.7849 23.245 23.0109C23.1428 23.237 23.0918 23.2317 23.0918 23.623V25.086C23.0918 25.4187 23.1146 25.6723 23.1602 25.8465C23.2059 26.021 23.2879 26.1807 23.4065 26.3257C23.525 26.4708 23.7286 26.585 23.9418 26.6681C24.1547 26.7512 24.3245 26.793 24.6028 26.793C24.8897 26.793 25.1283 26.7507 25.3186 26.6666C25.5088 26.5823 25.6658 26.4556 25.7898 26.2868C25.9137 26.1181 25.9926 25.9597 26.0262 25.8112C26.0599 25.6627 26.0768 25.4502 26.0768 25.1736V24.8429H24.8278V25.4334C24.8278 25.656 24.811 25.8062 24.7773 25.8838C24.7435 25.9614 24.6767 26.0002 24.5767 26.0002C24.4962 26.0002 24.4419 25.9709 24.4137 25.9123C24.3854 25.854 24.3713 25.7236 24.3713 25.5211V24.2386H26.0768V23.9589ZM24.3713 23.6668V23.3396C24.3713 23.0878 24.3821 23.2472 24.4039 23.1899C24.4256 23.1326 24.4821 23.1038 24.5735 23.1038C24.6473 23.1038 24.6962 23.1376 24.7202 23.2049C24.7441 23.2725 24.756 23.108 24.756 23.3396V23.6668H24.3713Z" fill="white"/>
</svg>
