<svg width="22" height="15" viewBox="0 0 22 15" fill="none" xmlns="http://www.w3.org/2000/svg">
<path fill-rule="evenodd" clip-rule="evenodd" d="M0.9848 10.7097C0.9848 10.7097 5.00576 14.2061 8.20335 10.7402C8.20335 10.7402 7.66861 10.7392 7.32558 10.4756C7.01269 10.2348 6.8888 9.72933 6.8888 9.72933C6.8888 9.72933 7.88348 9.17308 7.51011 8.75301C7.51011 8.75301 5.30998 8.70895 5.18686 7.38089L6.47938 6.54652C6.47938 6.54652 5.97164 6.7926 5.46896 6.5425C5.46896 6.5425 4.16473 5.60699 4.41363 4.64919L5.5033 4.53779C5.5033 4.53779 3.61273 3.19422 4.14078 2.16206C4.14078 2.16206 4.32265 1.27387 10.5766 5.42623C10.5766 5.42623 11.6791 1.50241 13.7157 0.639494C13.7157 0.639494 14.054 0.801962 14.054 0.974708C14.054 0.974708 14.3431 0.353618 14.7238 0.296036C14.7238 0.296036 15.1841 0.701342 14.8849 0.932156C14.8849 0.932156 15.6596 0.402182 16.038 0.671048C16.038 0.671048 16.007 1.14268 14.8933 1.72923C14.8933 1.72923 17.7838 1.88945 18.7926 5.74392C18.7926 5.74392 20.0464 6.19428 21.2229 5.43775C21.2229 5.43775 21.3206 6.00727 19.4934 6.81263C19.4934 6.81263 19.6634 7.08699 21.195 6.8782C21.195 6.8782 21.1831 8.01775 18.7599 8.00875C18.7599 8.00875 16.7139 13.937 11.7407 14.7531C5.6965 15.745 1.45114 12.7231 0.9848 10.7097Z" fill="#45B0E3"/>
</svg>
